<svg id="Layer_1" data-name="Layer 1" xmlns="http://www.w3.org/2000/svg" width="500" height="500" viewBox="0 0 500 500"><defs><style>.cls-1{fill:#b3b3b3;}.cls-2{fill:#00a99d;}.cls-3{fill:#858988;}.cls-4{fill:#ccc;}.cls-4,.cls-6,.cls-7{stroke:#ccc;}.cls-4,.cls-5,.cls-6,.cls-7{stroke-miterlimit:10;}.cls-5{fill:#666;stroke:#666;}.cls-6{fill:none;stroke-width:0.45px;}.cls-7{fill:#fbb03b;stroke-width:1.32px;}.cls-8{fill:#e6e6e6;}.cls-9{fill:#f7ecbf;}</style></defs><circle class="cls-1" cx="252.75" cy="192.48" r="47.46"/><circle class="cls-2" cx="247.05" cy="251.18" r="196.05"/><circle class="cls-3" cx="250.03" cy="186.75" r="55.49"/><path d="M251.41,190.41c-3.91.16-7-4.92-8.26-6.87-8-12.91-9.76-95-10.09-111.9-7.53-11.48-7.61-25.64-.45-35.32,6.55-8.86,16.73-10.63,19.26-11,2.45.35,12.73,2.09,19.26,11,7.09,9.7,6.85,23.93-.92,35.32-.56,18.65-3.14,95.25-11,111C258.14,184.75,255.39,190.25,251.41,190.41Z"/><path class="cls-4" d="M259.2,232.61a252.94,252.94,0,0,1-5.59,38.5l-3.12,0a185.74,185.74,0,0,1-8.25-38.52c-.54-5.22-.51-10.06-.46-19.72.08-14.84,1.06-18.87,4.12-21.1,2.49-1.8,6.44-2.5,9.18-.92,3.15,1.82,3.85,6.17,4.12,21.56C259.39,223,259.49,228.33,259.2,232.61Z"/><path class="cls-5" d="M259.2,193.62c-1.35,1.25-3.57,1.29-8,1.38-4.1.08-6.15.12-7.57-.92-3.27-2.38-3.9-8.47-1.83-10.09,1.73-1.35,4,1.53,9.4,1.38,4.91-.14,6.7-2.59,8.48-1.38C261.87,185.5,261.91,191.13,259.2,193.62Z"/><path class="cls-6" d="M293,308.27c.09,4.51-21.55,9.79-41,9.79-20.38,0-42.66-5.81-42.5-10.4s23.76-8.08,41.89-8S292.89,303.61,293,308.27Z"/><path class="cls-7" d="M294.21,348c-2.79,19.8-9.42,32.6-13.15,41.8-6.82,16.89-12.37,42.72-5.5,81.17H224.2c8.4-39,3.61-65.09-2.75-82.08-3.15-8.4-8.88-20.45-11.62-39.06a146.16,146.16,0,0,1-1.45-22,140.41,140.41,0,0,1,1.45-18.31,111.19,111.19,0,0,0,84.07.61A129.82,129.82,0,0,1,294.21,348Z"/><path class="cls-8" d="M276.06,474.17c-2.23,4.19-10.23,2.42-26.49,2.29-16-.12-24.28,1.58-26.14-2.4-.77-1.66-.12-3.62.58-5.05a228,228,0,0,0,52.05,0A6.64,6.64,0,0,1,276.06,474.17Z"/><path class="cls-9" d="M209.3,326.42a117.3,117.3,0,0,0,85.52.88,76,76,0,0,0-.3-10.79c-.22-2.28-.54-4.42-.91-6.42a105.74,105.74,0,0,1-83.7-.29,35.23,35.23,0,0,0-1.21,7A36.12,36.12,0,0,0,209.3,326.42Z"/><path class="cls-9" d="M293.6,307.36c-.19,1.17-1.32,3.62-15,6.72a108.43,108.43,0,0,1-27.06,3.37,105.28,105.28,0,0,1-25.83-3.37c-7.35-1.74-15.86-3.84-16.21-7.64-.2-2.22,2.44-4.35,4.28-5.81,2.88-2.27,5.24-2.76,9.48-4.28,7.57-2.72,6.78-3.59,10.7-4.59,5.77-1.47,6.54.65,15.9.62,9.71,0,11.56-2.34,16.81-.31,3.84,1.48,3.41,2.92,7.95,4.59,5.59,2,7.6.34,11.93,2.44C289.86,300.7,294.1,304.31,293.6,307.36Z"/><ellipse class="cls-9" cx="247.11" cy="292.74" rx="5.42" ry="3.44" transform="translate(-36.52 35.23) rotate(-7.59)"/><ellipse class="cls-9" cx="256.45" cy="290.39" rx="3.95" ry="6.23" transform="translate(-36.13 36.44) rotate(-7.59)"/><ellipse class="cls-9" cx="249.42" cy="290.39" rx="1.83" ry="2.93" transform="matrix(0.99, -0.13, 0.13, 0.99, -36.19, 35.51)"/><ellipse class="cls-9" cx="249.27" cy="290.39" rx="1.83" ry="2.93" transform="matrix(0.99, -0.13, 0.13, 0.99, -36.19, 35.49)"/><ellipse class="cls-9" cx="250.64" cy="291.46" rx="1.83" ry="2.93" transform="matrix(0.99, -0.13, 0.13, 0.99, -36.32, 35.68)"/><ellipse class="cls-9" cx="252.94" cy="292.07" rx="1.83" ry="2.93" transform="matrix(0.99, -0.13, 0.13, 0.99, -36.38, 35.99)"/><ellipse class="cls-9" cx="256.32" cy="290.48" rx="1.83" ry="2.93" transform="matrix(0.99, -0.13, 0.13, 0.99, -36.14, 36.42)"/></svg>