<svg id="Layer_1" data-name="Layer 1" xmlns="http://www.w3.org/2000/svg" width="100" height="100" viewBox="0 0 100 100"><defs><style>.cls-1{fill:#fbb03b;}</style></defs><path class="cls-1" d="M2.42,4,1.05,2,6,1.63Z"/><path class="cls-1" d="M2,9.74.59,7.68l4.93-.31Z"/><path class="cls-1" d="M5.29,7.21l-1.37-2,4.92-.32Z"/><path class="cls-1" d="M15.72,7.1l-1.37-2,4.93-.32Z"/><path class="cls-1" d="M12.28,11.68l-1.37-2,4.93-.32Z"/><path class="cls-1" d="M11.48,5.26l-1.37-2L15,2.89Z"/><path class="cls-1" d="M10.45,8.24l-1.37-2L14,5.87Z"/><path class="cls-1" d="M5.75,13,4.38,10.89l4.92-.31Z"/><path class="cls-1" d="M2.31,26.36.94,24.31,5.86,24Z"/><path class="cls-1" d="M1.85,32.09.48,30l4.92-.32Z"/><path class="cls-1" d="M5.17,29.57,3.8,27.52l4.93-.32Z"/><path class="cls-1" d="M10.33,30.6,9,28.55l4.93-.32Z"/><path class="cls-1" d="M5.63,35.3l-1.37-2,4.93-.32Z"/><path class="cls-1" d="M5.06,18l-1.37-2,4.92-.32Z"/><path class="cls-1" d="M7.58,23.84,6.21,21.78l4.93-.31Z"/><path class="cls-1" d="M18.7,20.74l-1.37-2,4.93-.32Z"/><path class="cls-1" d="M20.08,13.17l-1.37-2.05,4.92-.32Z"/><path class="cls-1" d="M14.69,16.5l-1.37-2.05,4.92-.32Z"/><path class="cls-1" d="M13.77,24.3,12.4,22.24l4.93-.31Z"/><path class="cls-1" d="M20.19,33.35,18.82,31.3,23.75,31Z"/><path class="cls-1" d="M21.57,25.79,20.2,23.73l4.92-.31Z"/><path class="cls-1" d="M16.18,29.11l-1.37-2.05,4.92-.32Z"/><path class="cls-1" d="M23.52,15.93l-1.37-2.06,4.92-.31Z"/><path class="cls-1" d="M29.94,25l-1.37-2.05,4.92-.32Z"/><path class="cls-1" d="M31.31,17.42l-1.37-2.06,4.93-.31Z"/><path class="cls-1" d="M25.92,20.74l-1.36-2,4.92-.32Z"/><path class="cls-1" d="M19.73,3.2,18.37,1.15,23.29.83Z"/><path class="cls-1" d="M26.15,12.26l-1.36-2,4.92-.32Z"/><path class="cls-1" d="M27.53,4.69,26.16,2.64l4.93-.32Z"/><path class="cls-1" d="M22.14,8,20.77,6l4.93-.31Z"/><path class="cls-1" d="M35,14l-1.37-2.06,4.93-.31Z"/><path class="cls-1" d="M41.4,23,40,21,45,20.66Z"/><path class="cls-1" d="M42.78,15.47l-1.37-2.05,4.92-.32Z"/><path class="cls-1" d="M37.39,18.79,36,16.74l4.92-.32Z"/><path class="cls-1" d="M35.33,3.54,34,1.49l4.92-.32Z"/><path class="cls-1" d="M41.75,12.6l-1.37-2,4.92-.32Z"/><path class="cls-1" d="M43.12,5,41.75,3l4.93-.32Z"/><path class="cls-1" d="M37.73,8.36l-1.36-2L41.29,6Z"/><path class="cls-1" d="M33.84,49l-1.37-2.06,4.92-.31Z"/><path class="cls-1" d="M33.38,54.68l-1.37-2,4.92-.32Z"/><path class="cls-1" d="M36.7,52.16,35.33,50.1l4.93-.31Z"/><path class="cls-1" d="M47.13,52l-1.36-2,4.92-.32Z"/><path class="cls-1" d="M43.7,56.63l-1.37-2.06,4.92-.31Z"/><path class="cls-1" d="M42.89,50.21l-1.37-2.06,4.93-.31Z"/><path class="cls-1" d="M41.86,53.19l-1.37-2.06,4.93-.31Z"/><path class="cls-1" d="M37.16,57.89l-1.37-2,4.93-.32Z"/><path class="cls-1" d="M36.47,62.93l-1.37-2L40,60.56Z"/><path class="cls-1" d="M50.12,65.68l-1.37-2.05,4.92-.32Z"/><path class="cls-1" d="M51.49,58.12l-1.37-2.06,4.93-.31Z"/><path class="cls-1" d="M46.1,61.44l-1.37-2,4.93-.32Z"/><path class="cls-1" d="M54.93,60.87l-1.37-2,4.93-.32Z"/><path class="cls-1" d="M62.73,62.36l-1.37-2L66.28,60Z"/><path class="cls-1" d="M57.34,65.68,56,63.63l4.92-.32Z"/><path class="cls-1" d="M51.15,48.14l-1.37-2,4.92-.32Z"/><path class="cls-1" d="M57.57,57.2,56.2,55.15l4.92-.32Z"/><path class="cls-1" d="M58.94,49.63l-1.36-2.05,4.92-.32Z"/><path class="cls-1" d="M53.56,53l-1.37-2.05,4.92-.32Z"/><path class="cls-1" d="M66.4,58.92,65,56.87,70,56.55Z"/><path class="cls-1" d="M72.82,68l-1.37-2.06,4.92-.31Z"/><path class="cls-1" d="M74.19,60.41l-1.37-2L77.75,58Z"/><path class="cls-1" d="M68.8,63.74l-1.36-2.06,4.92-.31Z"/><path class="cls-1" d="M66.74,48.49l-1.37-2.06,4.93-.31Z"/><path class="cls-1" d="M73.16,57.54l-1.37-2,4.93-.32Z"/><path class="cls-1" d="M74.54,50l-1.37-2.06,4.92-.31Z"/><path class="cls-1" d="M69.15,53.3l-1.37-2,4.92-.32Z"/><path class="cls-1" d="M42.43,37.71l-1.36-2.05L46,35.34Z"/><path class="cls-1" d="M50.23,39.2l-1.37-2.05,4.93-.32Z"/><path class="cls-1" d="M44.84,42.53l-1.37-2.06,4.93-.31Z"/><path class="cls-1" d="M45.07,34,43.7,32l4.93-.32Z"/><path class="cls-1" d="M46.45,26.47l-1.37-2L50,24.1Z"/><path class="cls-1" d="M53.9,35.76l-1.37-2,4.92-.32Z"/><path class="cls-1" d="M60.32,44.82l-1.37-2,4.92-.32Z"/><path class="cls-1" d="M61.7,37.25l-1.37-2,4.92-.32Z"/><path class="cls-1" d="M56.31,40.58l-1.37-2.06,4.92-.31Z"/><path class="cls-1" d="M54.24,25.33l-1.37-2L57.8,23Z"/><path class="cls-1" d="M60.66,34.39,59.3,32.33,64.22,32Z"/><path class="cls-1" d="M62,26.82l-1.37-2.05,4.92-.32Z"/><path class="cls-1" d="M56.65,30.14l-1.37-2.05,4.93-.32Z"/><path class="cls-1" d="M68,40.23l-1.37-2,4.93-.32Z"/><path class="cls-1" d="M75.8,41.72l-1.37-2,4.92-.32Z"/><path class="cls-1" d="M70.41,45.05,69,43,74,42.68Z"/><path class="cls-1" d="M70.64,36.56l-1.37-2.05,4.92-.32Z"/><path class="cls-1" d="M72,29l-1.36-2.06,4.92-.31Z"/><path class="cls-1" d="M79.47,38.28,78.1,36.23,83,35.91Z"/><path class="cls-1" d="M85.89,47.34l-1.37-2.05L89.44,45Z"/><path class="cls-1" d="M87.26,39.77l-1.37-2.05,4.93-.32Z"/><path class="cls-1" d="M81.87,43.1l-1.36-2.05,4.92-.32Z"/><path class="cls-1" d="M79.81,27.85,78.44,25.8l4.93-.32Z"/><path class="cls-1" d="M86.23,36.91l-1.37-2.06,4.93-.31Z"/><path class="cls-1" d="M87.61,29.34l-1.37-2.05L91.16,27Z"/><path class="cls-1" d="M82.22,32.67l-1.37-2.06,4.92-.31Z"/><path class="cls-1" d="M79.81,69.35l-1.37-2L83.37,67Z"/><path class="cls-1" d="M87.61,68.21l-1.37-2.06,4.92-.31Z"/><path class="cls-1" d="M95.4,69.7,94,67.64,99,67.33Z"/><path class="cls-1" d="M81.19,64.54l-1.37-2.05,4.92-.32Z"/><path class="cls-1" d="M82.56,57l-1.37-2,4.93-.32Z"/><path class="cls-1" d="M81.53,54.1l-1.37-2.05,4.93-.32Z"/><path class="cls-1" d="M88.87,60,87.5,57.9l4.92-.32Z"/><path class="cls-1" d="M96.66,61.44l-1.36-2,4.92-.32Z"/><path class="cls-1" d="M91.27,64.77l-1.36-2.06,4.92-.31Z"/><path class="cls-1" d="M91.5,56.28l-1.36-2.05,4.92-.32Z"/><path class="cls-1" d="M36.82,93.32l-1.37-2.06,4.92-.32Z"/><path class="cls-1" d="M44.61,94.81l-1.37-2.06,4.93-.31Z"/><path class="cls-1" d="M39.22,98.13l-1.36-2,4.92-.32Z"/><path class="cls-1" d="M43.58,91.94l-1.37-2,4.93-.32Z"/><path class="cls-1" d="M39.57,87.7,38.2,85.64l4.92-.31Z"/><path class="cls-1" d="M.82,57.54l-1.37-2,4.92-.32Z"/><path class="cls-1" d="M7.24,66.6l-1.37-2,4.92-.32Z"/><path class="cls-1" d="M8.61,59,7.24,57l4.93-.32Z"/><path class="cls-1" d="M3.22,62.36l-1.36-2L6.78,60Z"/><path class="cls-1" d="M7.58,56.17,6.21,54.12l4.93-.32Z"/><path class="cls-1" d="M3.57,51.93,2.2,49.87l4.92-.31Z"/><path class="cls-1" d="M92.31,46.31l-1.37-2.05,4.92-.32Z"/><path class="cls-1" d="M98.73,55.37l-1.37-2.06,4.92-.31Z"/><path class="cls-1" d="M100.1,47.8l-1.37-2,4.93-.32Z"/><path class="cls-1" d="M94.71,51.12l-1.36-2,4.92-.32Z"/><path class="cls-1" d="M99.07,44.93l-1.37-2,4.93-.32Z"/><path class="cls-1" d="M95.06,40.69l-1.37-2,4.92-.32Z"/><path class="cls-1" d="M92.77,29.8,91.4,27.75l4.92-.32Z"/><path class="cls-1" d="M99.19,38.86,97.82,36.8l4.92-.31Z"/><path class="cls-1" d="M100.56,31.29l-1.37-2.05,4.93-.32Z"/><path class="cls-1" d="M95.17,34.61l-1.37-2,4.93-.32Z"/><path class="cls-1" d="M99.53,28.42l-1.37-2.05,4.93-.32Z"/><path class="cls-1" d="M95.52,24.18l-1.37-2.05,4.92-.32Z"/><path class="cls-1" d="M81.64,90.22l-1.36-2,4.92-.32Z"/><path class="cls-1" d="M89.44,89.07l-1.37-2L93,86.7Z"/><path class="cls-1" d="M97.24,90.56l-1.37-2,4.92-.32Z"/><path class="cls-1" d="M83,85.4l-1.37-2.05L86.58,83Z"/><path class="cls-1" d="M84.4,77.84,83,75.78,88,75.47Z"/><path class="cls-1" d="M83.36,75l-1.36-2,4.92-.32Z"/><path class="cls-1" d="M90.7,80.82l-1.37-2,4.93-.32Z"/><path class="cls-1" d="M98.5,82.31l-1.37-2,4.92-.32Z"/><path class="cls-1" d="M93.11,85.63l-1.37-2,4.92-.32Z"/><path class="cls-1" d="M93.34,77.15,92,75.1l4.92-.32Z"/><path class="cls-1" d="M82.68,99.05,81.31,97l4.92-.31Z"/><path class="cls-1" d="M90.47,100.54,89.1,98.49,94,98.17Z"/><path class="cls-1" d="M89.44,97.67l-1.37-2L93,95.3Z"/><path class="cls-1" d="M85.43,93.43l-1.37-2.05L89,91.06Z"/><path class="cls-1" d="M57.68,98.93l-1.37-2.05,4.93-.32Z"/><path class="cls-1" d="M52.29,102.26l-1.36-2.05,4.92-.32Z"/><path class="cls-1" d="M56.65,96.07,55.28,94l4.93-.31Z"/><path class="cls-1" d="M52.64,91.82l-1.37-2,4.92-.32Z"/><path class="cls-1" d="M69.84,98.93l-1.37-2.05,4.92-.32Z"/><path class="cls-1" d="M64.45,102.26l-1.37-2.05L68,99.89Z"/><path class="cls-1" d="M68.8,96.07,67.44,94l4.92-.31Z"/><path class="cls-1" d="M64.79,91.82l-1.37-2,4.93-.32Z"/><path class="cls-1" d="M5.4,94.69,4,92.64,9,92.32Z"/><path class="cls-1" d="M13.2,96.18l-1.37-2.05,4.92-.32Z"/><path class="cls-1" d="M7.81,99.51,6.44,97.45l4.93-.31Z"/><path class="cls-1" d="M12.17,93.32,10.8,91.26l4.92-.32Z"/><path class="cls-1" d="M8.15,89.07,6.79,87l4.92-.32Z"/><path class="cls-1" d="M22.85,96,21.48,93.9l4.93-.31Z"/><path class="cls-1" d="M30.65,97.45l-1.37-2.06,4.92-.31Z"/><path class="cls-1" d="M25.26,100.77l-1.37-2,4.93-.32Z"/><path class="cls-1" d="M29.62,94.58l-1.37-2,4.92-.32Z"/><path class="cls-1" d="M25.6,90.34l-1.36-2L29.16,88Z"/><path class="cls-1" d="M2.77,80.47l-1.37-2,4.92-.32Z"/><path class="cls-1" d="M10.56,82l-1.37-2,4.93-.32Z"/><path class="cls-1" d="M5.17,85.29,3.8,83.24l4.93-.32Z"/><path class="cls-1" d="M5.4,76.81,4,74.75,9,74.44Z"/><path class="cls-1" d="M6.78,69.24l-1.37-2,4.92-.32Z"/><path class="cls-1" d="M14.23,78.53l-1.37-2.06,4.93-.31Z"/><path class="cls-1" d="M20.65,87.58l-1.37-2,4.93-.32Z"/><path class="cls-1" d="M22,80,20.66,78l4.92-.31Z"/><path class="cls-1" d="M16.64,83.34l-1.37-2L20.19,81Z"/><path class="cls-1" d="M14.57,68.09l-1.36-2,4.92-.32Z"/><path class="cls-1" d="M21,77.15,19.63,75.1l4.92-.32Z"/><path class="cls-1" d="M22.37,69.58l-1.37-2,4.93-.32Z"/><path class="cls-1" d="M17,72.91l-1.37-2.06,4.93-.31Z"/><path class="cls-1" d="M31,79.9,29.6,77.85l4.92-.32Z"/><path class="cls-1" d="M38.77,81.39l-1.37-2L42.32,79Z"/><path class="cls-1" d="M33.38,84.72,32,82.66l4.92-.31Z"/><path class="cls-1" d="M33.61,76.23l-1.37-2,4.92-.32Z"/><path class="cls-1" d="M35,68.67l-1.37-2.06,4.93-.31Z"/><path class="cls-1" d="M42.43,78l-1.36-2L46,75.58Z"/><path class="cls-1" d="M48.85,87,47.49,85l4.92-.32Z"/><path class="cls-1" d="M50.23,79.44l-1.37-2,4.93-.32Z"/><path class="cls-1" d="M44.84,82.77l-1.37-2.06,4.93-.31Z"/><path class="cls-1" d="M42.78,67.52l-1.37-2,4.92-.32Z"/><path class="cls-1" d="M49.2,76.58l-1.37-2.06,4.92-.31Z"/><path class="cls-1" d="M50.57,69,49.21,67l4.92-.32Z"/><path class="cls-1" d="M45.19,72.33l-1.37-2L48.74,70Z"/><path class="cls-1" d="M57.45,84.14l-1.37-2L61,81.77Z"/><path class="cls-1" d="M65.25,85.63l-1.37-2,4.92-.32Z"/><path class="cls-1" d="M59.86,89l-1.37-2,4.93-.32Z"/><path class="cls-1" d="M60.09,80.47l-1.37-2,4.93-.32Z"/><path class="cls-1" d="M61.47,72.91,60.1,70.85,65,70.54Z"/><path class="cls-1" d="M68.92,82.19l-1.37-2,4.92-.32Z"/><path class="cls-1" d="M75.34,91.25,74,89.2l4.92-.32Z"/><path class="cls-1" d="M76.71,83.68l-1.36-2.05,4.92-.32Z"/><path class="cls-1" d="M71.33,87,70,85l4.92-.32Z"/><path class="cls-1" d="M69.26,71.76l-1.37-2.05,4.93-.32Z"/><path class="cls-1" d="M75.68,80.82l-1.37-2,4.93-.32Z"/><path class="cls-1" d="M77.06,73.25l-1.37-2,4.92-.32Z"/><path class="cls-1" d="M71.67,76.58,70.3,74.52l4.93-.31Z"/><path class="cls-1" d="M51.26,4.35,49.89,2.29,54.82,2Z"/><path class="cls-1" d="M50.8,10.08,49.44,8l4.92-.32Z"/><path class="cls-1" d="M54.13,7.56,52.76,5.5l4.92-.31Z"/><path class="cls-1" d="M64.56,7.44,63.19,5.39l4.93-.32Z"/><path class="cls-1" d="M61.12,12l-1.37-2,4.93-.32Z"/><path class="cls-1" d="M60.32,5.61,59,3.56l4.92-.32Z"/><path class="cls-1" d="M59.29,8.59l-1.37-2,4.92-.32Z"/><path class="cls-1" d="M54.59,13.29l-1.37-2,4.92-.32Z"/><path class="cls-1" d="M53.9,18.33l-1.37-2L57.45,16Z"/><path class="cls-1" d="M67.54,21.09,66.17,19l4.93-.31Z"/><path class="cls-1" d="M68.92,13.52l-1.37-2,4.92-.32Z"/><path class="cls-1" d="M63.53,16.84l-1.37-2.05,4.93-.32Z"/><path class="cls-1" d="M72.36,16.27l-1.37-2,4.92-.32Z"/><path class="cls-1" d="M80.15,17.76l-1.36-2.05,4.92-.32Z"/><path class="cls-1" d="M74.77,21.09,73.4,19l4.92-.31Z"/><path class="cls-1" d="M68.57,3.54l-1.36-2,4.92-.32Z"/><path class="cls-1" d="M75,12.6l-1.36-2,4.92-.32Z"/><path class="cls-1" d="M76.37,5,75,3l4.93-.32Z"/><path class="cls-1" d="M71,8.36l-1.37-2L74.54,6Z"/><path class="cls-1" d="M83.82,14.32l-1.37-2.05L87.38,12Z"/><path class="cls-1" d="M90.24,23.38l-1.37-2.05L93.8,21Z"/><path class="cls-1" d="M91.62,15.81l-1.37-2.05,4.92-.32Z"/><path class="cls-1" d="M86.23,19.14l-1.37-2.06,4.93-.31Z"/><path class="cls-1" d="M84.17,3.89l-1.37-2,4.92-.32Z"/><path class="cls-1" d="M90.59,13l-1.37-2.06,4.92-.31Z"/><path class="cls-1" d="M92,5.38l-1.37-2L95.52,3Z"/><path class="cls-1" d="M86.57,8.7l-1.36-2,4.92-.32Z"/><path class="cls-1" d="M28.22,32.44l-1.37-2.06,4.92-.31Z"/><path class="cls-1" d="M34.64,41.49l-1.37-2.05,4.92-.32Z"/><path class="cls-1" d="M36,33.93l-1.36-2.06,4.92-.31Z"/><path class="cls-1" d="M30.63,37.25l-1.37-2,4.92-.32Z"/><path class="cls-1" d="M16.18,39.66l-1.37-2,4.92-.32Z"/><path class="cls-1" d="M22.6,48.72l-1.37-2.06,4.93-.31Z"/><path class="cls-1" d="M24,41.15l-1.37-2,4.92-.32Z"/><path class="cls-1" d="M18.59,44.47l-1.37-2,4.92-.32Z"/><path class="cls-1" d="M6.2,44.47l-1.36-2,4.92-.32Z"/><path class="cls-1" d="M12.63,53.53l-1.37-2.05,4.92-.32Z"/><path class="cls-1" d="M14,46l-1.37-2.05,4.93-.32Z"/><path class="cls-1" d="M8.61,49.29l-1.37-2,4.93-.32Z"/><path class="cls-1" d="M18.93,55.14l-1.37-2.06,4.93-.31Z"/><path class="cls-1" d="M25.35,64.19l-1.37-2,4.93-.32Z"/><path class="cls-1" d="M26.73,56.63l-1.37-2.06,4.92-.31Z"/><path class="cls-1" d="M21.34,60,20,57.9l4.92-.32Z"/></svg>