<svg id="Layer_1" data-name="Layer 1" xmlns="http://www.w3.org/2000/svg" width="100" height="100" viewBox="0 0 100 100"><defs><style>.cls-1{fill:none;stroke:#b85cff;stroke-miterlimit:10;stroke-width:0.53px;}</style></defs><line class="cls-1" x1="96.22" y1="106.76" x2="103.03" y2="99.95"/><line class="cls-1" x1="-6.95" y1="4.77" x2="-0.14" y2="-2.05"/><line class="cls-1" x1="-1.34" y1="36.58" x2="5.47" y2="29.77"/><line class="cls-1" x1="-3.78" y1="43.88" x2="3.03" y2="37.07"/><line class="cls-1" x1="4.12" y1="35.92" x2="10.93" y2="29.11"/><line class="cls-1" x1="-0.95" y1="45.73" x2="5.86" y2="38.92"/><line class="cls-1" x1="6.95" y1="37.83" x2="13.76" y2="31.02"/><line class="cls-1" x1="6.09" y1="43.16" x2="12.9" y2="36.35"/><line class="cls-1" x1="16.42" y1="47.9" x2="23.24" y2="41.09"/><line class="cls-1" x1="16.42" y1="47.9" x2="23.24" y2="41.09"/><line class="cls-1" x1="14.25" y1="53.62" x2="21.06" y2="46.81"/><line class="cls-1" x1="22.54" y1="45.66" x2="29.36" y2="38.85"/><line class="cls-1" x1="12.48" y1="60.4" x2="19.29" y2="53.59"/><line class="cls-1" x1="20.11" y1="52.97" x2="26.92" y2="46.16"/><line class="cls-1" x1="28.01" y1="45" x2="34.82" y2="38.19"/><line class="cls-1" x1="22.94" y1="54.81" x2="29.75" y2="48"/><line class="cls-1" x1="30.84" y1="46.91" x2="37.65" y2="40.1"/><line class="cls-1" x1="22.61" y1="59.68" x2="29.42" y2="52.87"/><line class="cls-1" x1="29.98" y1="52.24" x2="36.79" y2="45.43"/><line class="cls-1" x1="-5.36" y1="77.77" x2="1.45" y2="70.96"/><line class="cls-1" x1="2.93" y1="69.81" x2="9.75" y2="63"/><line class="cls-1" x1="0.5" y1="77.12" x2="7.31" y2="70.31"/><line class="cls-1" x1="8.4" y1="69.15" x2="15.21" y2="62.34"/><line class="cls-1" x1="3.33" y1="78.96" x2="10.14" y2="72.15"/><line class="cls-1" x1="11.23" y1="71.06" x2="18.04" y2="64.25"/><line class="cls-1" x1="3" y1="83.83" x2="9.81" y2="77.02"/><line class="cls-1" x1="10.37" y1="76.39" x2="17.18" y2="69.58"/><line class="cls-1" x1="19.52" y1="67.38" x2="26.33" y2="60.57"/><line class="cls-1" x1="19.52" y1="67.38" x2="26.33" y2="60.57"/><line class="cls-1" x1="17.35" y1="73.1" x2="24.16" y2="66.29"/><line class="cls-1" x1="25.64" y1="65.14" x2="32.45" y2="58.33"/><line class="cls-1" x1="28.14" y1="58.3" x2="34.95" y2="51.49"/><line class="cls-1" x1="15.57" y1="79.88" x2="22.38" y2="73.07"/><line class="cls-1" x1="23.2" y1="72.44" x2="30.01" y2="65.63"/><line class="cls-1" x1="31.1" y1="64.48" x2="37.91" y2="57.67"/><line class="cls-1" x1="26.03" y1="74.29" x2="32.84" y2="67.48"/><line class="cls-1" x1="33.93" y1="66.39" x2="40.74" y2="59.58"/><line class="cls-1" x1="25.7" y1="79.16" x2="32.51" y2="72.35"/><line class="cls-1" x1="33.07" y1="71.72" x2="39.88" y2="64.91"/><line class="cls-1" x1="38.67" y1="43.62" x2="45.48" y2="36.81"/><line class="cls-1" x1="38.67" y1="43.62" x2="45.48" y2="36.81"/><line class="cls-1" x1="36.49" y1="49.35" x2="43.31" y2="42.54"/><line class="cls-1" x1="44.79" y1="41.38" x2="51.6" y2="34.57"/><line class="cls-1" x1="34.72" y1="56.12" x2="41.53" y2="49.31"/><line class="cls-1" x1="42.35" y1="48.69" x2="49.16" y2="41.88"/><line class="cls-1" x1="50.25" y1="40.73" x2="57.06" y2="33.92"/><line class="cls-1" x1="45.18" y1="50.53" x2="51.99" y2="43.72"/><line class="cls-1" x1="53.08" y1="42.63" x2="59.89" y2="35.82"/><line class="cls-1" x1="44.85" y1="55.4" x2="51.66" y2="48.59"/><line class="cls-1" x1="52.22" y1="47.96" x2="59.03" y2="41.15"/><line class="cls-1" x1="65.34" y1="105.91" x2="72.16" y2="99.1"/><line class="cls-1" x1="65.34" y1="105.91" x2="72.16" y2="99.1"/><line class="cls-1" x1="71.46" y1="103.67" x2="78.27" y2="96.86"/><line class="cls-1" x1="79.5" y1="94.32" x2="86.31" y2="87.51"/><line class="cls-1" x1="58.52" y1="49.98" x2="65.33" y2="43.17"/><line class="cls-1" x1="61.35" y1="51.89" x2="68.16" y2="45.08"/><line class="cls-1" x1="60.49" y1="57.22" x2="67.3" y2="50.41"/><line class="cls-1" x1="47.09" y1="57.28" x2="53.9" y2="50.47"/><line class="cls-1" x1="49.92" y1="59.19" x2="56.73" y2="52.38"/><line class="cls-1" x1="49.06" y1="64.52" x2="55.87" y2="57.71"/><line class="cls-1" x1="32.55" y1="75.6" x2="39.36" y2="68.79"/><line class="cls-1" x1="38.01" y1="74.94" x2="44.82" y2="68.13"/><line class="cls-1" x1="32.94" y1="84.75" x2="39.75" y2="77.94"/><line class="cls-1" x1="40.84" y1="76.85" x2="47.65" y2="70.04"/><line class="cls-1" x1="32.61" y1="89.62" x2="39.42" y2="82.81"/><line class="cls-1" x1="39.98" y1="82.18" x2="46.79" y2="75.37"/><line class="cls-1" x1="1.49" y1="89.84" x2="8.3" y2="83.03"/><line class="cls-1" x1="-1.61" y1="97.54" x2="5.2" y2="90.73"/><line class="cls-1" x1="-1.61" y1="97.54" x2="5.2" y2="90.73"/><line class="cls-1" x1="-3.78" y1="103.26" x2="3.03" y2="96.45"/><line class="cls-1" x1="4.51" y1="95.3" x2="11.32" y2="88.49"/><line class="cls-1" x1="7.01" y1="88.46" x2="13.82" y2="81.65"/><line class="cls-1" x1="66.14" y1="55.93" x2="72.95" y2="49.12"/><line class="cls-1" x1="2.08" y1="102.61" x2="8.89" y2="95.8"/><line class="cls-1" x1="62.53" y1="34.27" x2="69.34" y2="27.46"/><line class="cls-1" x1="62.53" y1="34.27" x2="69.34" y2="27.46"/><line class="cls-1" x1="60.36" y1="40" x2="67.17" y2="33.19"/><line class="cls-1" x1="58.58" y1="46.78" x2="65.39" y2="39.97"/><line class="cls-1" x1="66.21" y1="39.34" x2="73.02" y2="32.53"/><line class="cls-1" x1="9.97" y1="94.64" x2="16.79" y2="87.83"/><line class="cls-1" x1="4.91" y1="104.45" x2="11.72" y2="97.64"/><line class="cls-1" x1="12.8" y1="96.55" x2="19.61" y2="89.74"/><line class="cls-1" x1="11.94" y1="101.88" x2="18.76" y2="95.07"/><line class="cls-1" x1="13.59" y1="86.29" x2="20.4" y2="79.48"/><line class="cls-1" x1="23.73" y1="85.56" x2="30.54" y2="78.75"/><line class="cls-1" x1="11.42" y1="105.76" x2="18.23" y2="98.95"/><line class="cls-1" x1="16.88" y1="105.11" x2="23.69" y2="98.3"/><line class="cls-1" x1="41.78" y1="65.57" x2="48.59" y2="58.76"/><line class="cls-1" x1="31.1" y1="95.28" x2="37.91" y2="88.47"/><line class="cls-1" x1="28.01" y1="102.98" x2="34.82" y2="96.17"/><line class="cls-1" x1="28.01" y1="102.98" x2="34.82" y2="96.17"/><line class="cls-1" x1="34.13" y1="100.75" x2="40.94" y2="93.94"/><line class="cls-1" x1="36.63" y1="93.9" x2="43.44" y2="87.09"/><line class="cls-1" x1="39.59" y1="100.09" x2="46.4" y2="93.28"/><line class="cls-1" x1="42.42" y1="102" x2="49.23" y2="95.19"/><line class="cls-1" x1="43.21" y1="91.73" x2="50.02" y2="84.92"/><line class="cls-1" x1="53.35" y1="91.01" x2="60.16" y2="84.2"/><line class="cls-1" x1="52.12" y1="66.21" x2="58.93" y2="59.4"/><line class="cls-1" x1="49.03" y1="73.91" x2="55.84" y2="67.1"/><line class="cls-1" x1="49.03" y1="73.91" x2="55.84" y2="67.1"/><line class="cls-1" x1="46.85" y1="79.64" x2="53.67" y2="72.82"/><line class="cls-1" x1="55.15" y1="71.67" x2="61.96" y2="64.86"/><line class="cls-1" x1="57.65" y1="64.83" x2="64.46" y2="58.02"/><line class="cls-1" x1="45.08" y1="86.41" x2="51.89" y2="79.6"/><line class="cls-1" x1="52.71" y1="78.98" x2="59.52" y2="72.17"/><line class="cls-1" x1="60.61" y1="71.01" x2="67.42" y2="64.2"/><line class="cls-1" x1="55.54" y1="80.82" x2="62.35" y2="74.01"/><line class="cls-1" x1="63.44" y1="72.92" x2="70.25" y2="66.11"/><line class="cls-1" x1="55.21" y1="85.69" x2="62.02" y2="78.88"/><line class="cls-1" x1="62.58" y1="78.25" x2="69.39" y2="71.44"/><line class="cls-1" x1="64.23" y1="62.66" x2="71.04" y2="55.85"/><line class="cls-1" x1="74.36" y1="61.93" x2="81.17" y2="55.12"/><line class="cls-1" x1="62.06" y1="82.14" x2="68.87" y2="75.33"/><line class="cls-1" x1="67.52" y1="81.48" x2="74.33" y2="74.67"/><line class="cls-1" x1="62.45" y1="91.28" x2="69.26" y2="84.47"/><line class="cls-1" x1="70.35" y1="83.39" x2="77.16" y2="76.58"/><line class="cls-1" x1="62.12" y1="96.15" x2="68.93" y2="89.34"/><line class="cls-1" x1="69.49" y1="88.72" x2="76.3" y2="81.91"/><line class="cls-1" x1="13.92" y1="35.46" x2="20.73" y2="28.65"/><line class="cls-1" x1="-0.03" y1="54.41" x2="6.78" y2="47.6"/><line class="cls-1" x1="-2.46" y1="61.72" x2="4.35" y2="54.91"/><line class="cls-1" x1="5.44" y1="53.76" x2="12.25" y2="46.94"/><line class="cls-1" x1="0.37" y1="63.76" x2="7.18" y2="56.95"/><line class="cls-1" x1="0.43" y1="63.76" x2="7.25" y2="56.95"/><line class="cls-1" x1="8.27" y1="55.86" x2="15.08" y2="49.05"/><line class="cls-1" x1="8" y1="46.58" x2="14.81" y2="39.77"/><line class="cls-1" x1="15.44" y1="39.21" x2="22.25" y2="32.4"/><line class="cls-1" x1="21.29" y1="38.03" x2="28.1" y2="31.22"/><line class="cls-1" x1="5.7" y1="62.77" x2="12.51" y2="55.96"/><line class="cls-1" x1="25.83" y1="38.62" x2="32.65" y2="31.81"/><line class="cls-1" x1="79.67" y1="45.54" x2="86.48" y2="38.73"/><line class="cls-1" x1="79.67" y1="45.54" x2="86.48" y2="38.73"/><line class="cls-1" x1="77.5" y1="51.27" x2="84.31" y2="44.46"/><line class="cls-1" x1="85.79" y1="43.31" x2="92.6" y2="36.5"/><line class="cls-1" x1="75.72" y1="58.05" x2="82.53" y2="51.24"/><line class="cls-1" x1="83.36" y1="50.61" x2="90.17" y2="43.8"/><line class="cls-1" x1="91.25" y1="42.65" x2="98.06" y2="35.84"/><line class="cls-1" x1="78.75" y1="59.82" x2="85.56" y2="53.01"/><line class="cls-1" x1="86.19" y1="52.45" x2="93" y2="45.64"/><line class="cls-1" x1="94.08" y1="44.56" x2="100.89" y2="37.75"/><line class="cls-1" x1="78.09" y1="64.96" x2="84.9" y2="58.15"/><line class="cls-1" x1="93.22" y1="49.89" x2="100.03" y2="43.08"/><line class="cls-1" x1="99.61" y1="67.13" x2="106.42" y2="60.32"/><line class="cls-1" x1="82.2" y1="98.27" x2="89.01" y2="91.46"/><line class="cls-1" x1="81.34" y1="103.61" x2="88.15" y2="96.79"/><line class="cls-1" x1="81.78" y1="84.5" x2="88.59" y2="77.69"/><line class="cls-1" x1="90.07" y1="76.54" x2="96.88" y2="69.73"/><line class="cls-1" x1="15.8" y1="1.09" x2="22.61" y2="-5.72"/><line class="cls-1" x1="87.63" y1="83.84" x2="94.44" y2="77.03"/><line class="cls-1" x1="95.53" y1="75.88" x2="102.34" y2="69.07"/><line class="cls-1" x1="90.46" y1="85.68" x2="97.27" y2="78.87"/><line class="cls-1" x1="98.36" y1="77.79" x2="105.17" y2="70.98"/><line class="cls-1" x1="90.13" y1="90.55" x2="96.95" y2="83.74"/><line class="cls-1" x1="97.5" y1="83.12" x2="104.31" y2="76.31"/><line class="cls-1" x1="90.03" y1="94.98" x2="96.84" y2="88.17"/><line class="cls-1" x1="90.03" y1="94.98" x2="96.84" y2="88.17"/><line class="cls-1" x1="87.86" y1="100.71" x2="94.67" y2="93.9"/><line class="cls-1" x1="96.15" y1="92.75" x2="102.96" y2="85.94"/><line class="cls-1" x1="93.71" y1="100.05" x2="100.53" y2="93.24"/><line class="cls-1" x1="96.54" y1="101.89" x2="103.35" y2="95.08"/><line class="cls-1" x1="80.44" y1="25.73" x2="87.25" y2="18.92"/><line class="cls-1" x1="79.58" y1="31.06" x2="86.39" y2="24.25"/><line class="cls-1" x1="88.27" y1="22.44" x2="95.09" y2="15.63"/><line class="cls-1" x1="88.27" y1="22.44" x2="95.09" y2="15.63"/><line class="cls-1" x1="86.1" y1="28.17" x2="92.91" y2="21.36"/><line class="cls-1" x1="94.39" y1="20.2" x2="101.2" y2="13.39"/><line class="cls-1" x1="91.96" y1="27.51" x2="98.77" y2="20.7"/><line class="cls-1" x1="94.79" y1="29.35" x2="101.6" y2="22.54"/><line class="cls-1" x1="71.94" y1="40.05" x2="78.75" y2="33.24"/><line class="cls-1" x1="74.77" y1="41.96" x2="81.58" y2="35.15"/><line class="cls-1" x1="73.91" y1="47.29" x2="80.72" y2="40.48"/><line class="cls-1" x1="3.63" y1="2.8" x2="10.44" y2="-4.01"/><line class="cls-1" x1="55.87" y1="1.28" x2="62.68" y2="-5.53"/><line class="cls-1" x1="55.54" y1="6.15" x2="62.35" y2="-0.66"/><line class="cls-1" x1="24.42" y1="6.38" x2="31.23" y2="-0.44"/><line class="cls-1" x1="21.32" y1="14.07" x2="28.13" y2="7.26"/><line class="cls-1" x1="21.32" y1="14.07" x2="28.13" y2="7.26"/><line class="cls-1" x1="19.15" y1="19.8" x2="25.96" y2="12.99"/><line class="cls-1" x1="27.44" y1="11.84" x2="34.25" y2="5.03"/><line class="cls-1" x1="29.94" y1="4.99" x2="36.75" y2="-1.82"/><line class="cls-1" x1="17.99" y1="28.11" x2="24.8" y2="21.29"/><line class="cls-1" x1="25.01" y1="19.14" x2="31.82" y2="12.33"/><line class="cls-1" x1="32.9" y1="11.18" x2="39.72" y2="4.37"/><line class="cls-1" x1="27.84" y1="20.98" x2="34.65" y2="14.17"/><line class="cls-1" x1="35.73" y1="13.09" x2="42.54" y2="6.28"/><line class="cls-1" x1="27.51" y1="25.85" x2="34.32" y2="19.04"/><line class="cls-1" x1="34.87" y1="18.42" x2="41.69" y2="11.61"/><line class="cls-1" x1="36.52" y1="2.82" x2="43.33" y2="-3.99"/><line class="cls-1" x1="46.66" y1="2.1" x2="53.47" y2="-4.71"/><line class="cls-1" x1="34.35" y1="22.3" x2="41.16" y2="15.49"/><line class="cls-1" x1="39.81" y1="21.64" x2="46.62" y2="14.83"/><line class="cls-1" x1="34.75" y1="31.45" x2="41.56" y2="24.64"/><line class="cls-1" x1="42.64" y1="23.55" x2="49.45" y2="16.74"/><line class="cls-1" x1="34.42" y1="36.32" x2="41.23" y2="29.51"/><line class="cls-1" x1="41.78" y1="28.88" x2="48.59" y2="22.07"/><line class="cls-1" x1="54.03" y1="11.82" x2="60.84" y2="5.01"/><line class="cls-1" x1="50.94" y1="19.52" x2="57.75" y2="12.71"/><line class="cls-1" x1="50.94" y1="19.52" x2="57.75" y2="12.71"/><line class="cls-1" x1="48.77" y1="25.24" x2="55.58" y2="18.43"/><line class="cls-1" x1="57.06" y1="17.28" x2="63.87" y2="10.47"/><line class="cls-1" x1="59.56" y1="10.44" x2="66.37" y2="3.63"/><line class="cls-1" x1="46.99" y1="32.02" x2="53.8" y2="25.21"/><line class="cls-1" x1="54.63" y1="24.59" x2="61.44" y2="17.77"/><line class="cls-1" x1="62.52" y1="16.62" x2="69.33" y2="9.81"/><line class="cls-1" x1="57.46" y1="26.43" x2="64.27" y2="19.62"/><line class="cls-1" x1="65.35" y1="18.53" x2="72.16" y2="11.72"/><line class="cls-1" x1="57.13" y1="31.3" x2="63.94" y2="24.49"/><line class="cls-1" x1="64.49" y1="23.86" x2="71.3" y2="17.05"/><line class="cls-1" x1="66.14" y1="8.27" x2="72.95" y2="1.46"/><line class="cls-1" x1="76.28" y1="7.54" x2="83.09" y2="0.73"/><line class="cls-1" x1="63.97" y1="27.74" x2="70.78" y2="20.93"/><line class="cls-1" x1="69.43" y1="27.09" x2="76.24" y2="20.28"/><line class="cls-1" x1="13.51" y1="9.67" x2="20.32" y2="2.86"/><line class="cls-1" x1="72.26" y1="28.99" x2="79.07" y2="22.18"/><line class="cls-1" x1="13.18" y1="14.54" x2="20" y2="7.73"/><line class="cls-1" x1="71.4" y1="34.32" x2="78.21" y2="27.51"/><line class="cls-1" x1="-4.75" y1="11.79" x2="2.06" y2="4.98"/><line class="cls-1" x1="-1.72" y1="17.25" x2="5.09" y2="10.44"/><line class="cls-1" x1="0.78" y1="10.41" x2="7.59" y2="3.6"/><line class="cls-1" x1="68.01" y1="2.95" x2="74.82" y2="-3.86"/><line class="cls-1" x1="-4.15" y1="24.56" x2="2.66" y2="17.75"/><line class="cls-1" x1="3.74" y1="16.59" x2="10.55" y2="9.78"/><line class="cls-1" x1="-1.33" y1="26.4" x2="5.49" y2="19.59"/><line class="cls-1" x1="6.57" y1="18.5" x2="13.38" y2="11.69"/><line class="cls-1" x1="78.14" y1="2.22" x2="84.95" y2="-4.59"/><line class="cls-1" x1="5.71" y1="23.83" x2="12.52" y2="17.02"/><line class="cls-1" x1="7.36" y1="8.24" x2="14.17" y2="1.43"/><line class="cls-1" x1="17.49" y1="7.51" x2="24.31" y2="0.7"/><line class="cls-1" x1="5.19" y1="27.72" x2="12" y2="20.9"/><line class="cls-1" x1="10.65" y1="27.06" x2="17.46" y2="20.25"/><line class="cls-1" x1="85.38" y1="7.82" x2="92.19" y2="1.01"/><line class="cls-1" x1="13.48" y1="28.97" x2="20.29" y2="22.15"/><line class="cls-1" x1="85.05" y1="12.69" x2="91.86" y2="5.88"/><line class="cls-1" x1="92.42" y1="5.25" x2="99.23" y2="-1.56"/><line class="cls-1" x1="78.82" y1="69.1" x2="85.63" y2="62.29"/><line class="cls-1" x1="87.11" y1="61.14" x2="93.92" y2="54.33"/><line class="cls-1" x1="77.04" y1="75.88" x2="83.85" y2="69.07"/><line class="cls-1" x1="84.67" y1="68.44" x2="91.48" y2="61.63"/><line class="cls-1" x1="92.57" y1="60.48" x2="99.38" y2="53.67"/><line class="cls-1" x1="80.07" y1="77.85" x2="86.88" y2="71.04"/><line class="cls-1" x1="87.5" y1="70.48" x2="94.31" y2="63.67"/><line class="cls-1" x1="87.57" y1="70.48" x2="94.38" y2="63.67"/><line class="cls-1" x1="95.4" y1="62.59" x2="102.21" y2="55.78"/><line class="cls-1" x1="95.14" y1="53.31" x2="101.95" y2="46.5"/><line class="cls-1" x1="83.63" y1="34.09" x2="90.44" y2="27.28"/><line class="cls-1" x1="85.14" y1="37.84" x2="91.96" y2="31.03"/><line class="cls-1" x1="74.46" y1="14.67" x2="81.27" y2="7.86"/><line class="cls-1" x1="75.97" y1="18.42" x2="82.78" y2="11.61"/><line class="cls-1" x1="90.96" y1="11.61" x2="97.78" y2="4.8"/><line class="cls-1" x1="92.48" y1="15.37" x2="99.29" y2="8.55"/><line class="cls-1" x1="71.09" y1="93.09" x2="77.9" y2="86.28"/><line class="cls-1" x1="72.61" y1="96.84" x2="79.42" y2="90.03"/><line class="cls-1" x1="51.53" y1="97.68" x2="58.34" y2="90.87"/><line class="cls-1" x1="53.04" y1="101.43" x2="59.85" y2="94.62"/><line class="cls-1" x1="22.33" y1="92.48" x2="29.14" y2="85.67"/><line class="cls-1" x1="23.85" y1="96.23" x2="30.66" y2="89.42"/><line class="cls-1" x1="44.65" y1="9.17" x2="51.46" y2="2.36"/><line class="cls-1" x1="46.16" y1="12.92" x2="52.97" y2="6.11"/><line class="cls-1" x1="92.83" y1="69.5" x2="99.64" y2="62.69"/></svg>